<svg width="100%" height="100%" viewBox="0 0 90 90" version="1.1" xmlns="http://www.w3.org/2000/svg" xmlns:xlink="http://www.w3.org/1999/xlink" xml:space="preserve" xmlns:serif="http://www.serif.com/" style="fill-rule:evenodd;clip-rule:evenodd;stroke-linejoin:round;stroke-miterlimit:2;">
    <rect id="Artboard1" x="0" y="0" width="90" height="90" style="fill:none;"/>
    <clipPath id="_clip1">
        <rect id="Artboard11" serif:id="Artboard1" x="0" y="0" width="90" height="90"/>
    </clipPath>
    <g clip-path="url(#_clip1)">
        <g id="path961" transform="matrix(0.56743,0,0,0.56743,163.483,-219.066)">
            <path d="M-265.261,431.124C-267.296,431.237 -269.163,432.291 -270.312,433.975L-287.402,462.327C-288.344,464.113 -288.348,466.247 -287.414,468.036L-278.282,483.3C-278.149,482.814 -277.969,482.339 -277.733,481.884C-277.444,481.333 -277.059,480.808 -276.756,480.258C-266.979,464.052 -258.595,450.212 -248.805,434.014C-247.857,432.383 -248.591,431.154 -250.408,431.15L-265.261,431.124ZM-152.352,431.124L-167.206,431.149C-169.023,431.152 -169.757,432.381 -168.809,434.013C-159.019,450.21 -150.634,464.051 -140.858,480.257C-140.555,480.807 -140.17,481.332 -139.881,481.883C-139.645,482.338 -139.465,482.813 -139.332,483.299L-130.2,468.035C-129.265,466.246 -129.269,464.112 -130.211,462.326L-147.301,433.974C-148.45,432.29 -150.317,431.236 -152.352,431.123L-152.352,431.124ZM-211.998,431.251L-212.969,431.268L-225.657,431.268C-225.732,431.276 -225.807,431.286 -225.882,431.296L-226.672,431.298L-226.672,431.417C-228.313,431.771 -229.757,432.743 -230.703,434.13L-247.743,462.513C-248.68,464.298 -248.68,466.436 -247.743,468.221L-242.47,476.999L-241.644,478.373C-241.091,479.664 -241.664,480.696 -243.149,480.803L-254.983,480.761C-256.884,480.744 -258.64,479.887 -259.783,478.39C-261.629,475.335 -263.475,472.28 -265.32,469.226L-265.323,469.224C-268.318,474.244 -271.314,479.265 -274.309,484.285C-274.649,484.88 -274.858,485.542 -274.971,486.214C-275.164,487.394 -274.995,488.65 -274.497,489.736C-274.249,490.145 -273.962,490.619 -273.697,491.056L-273.71,491.065L-270.381,496.608C-270.047,497.084 -269.65,497.513 -269.203,497.884C-269.142,497.936 -269.082,497.988 -269.02,498.038C-268.834,498.187 -268.641,498.326 -268.44,498.454C-268.253,498.573 -268.06,498.683 -267.862,498.782C-267.739,498.844 -267.615,498.902 -267.489,498.956C-267.198,499.081 -266.898,499.185 -266.591,499.266C-266.547,499.278 -266.502,499.289 -266.458,499.3C-266.07,499.394 -265.672,499.455 -265.267,499.477L-259.661,499.469L-250.481,499.469C-250.383,499.469 -250.289,499.466 -250.197,499.458L-225.733,499.469C-225.708,499.472 -225.683,499.475 -225.658,499.477L-210.804,499.477C-210.633,499.477 -210.474,499.466 -210.324,499.444L-207.26,499.442C-207.105,499.464 -206.939,499.478 -206.761,499.478L-191.907,499.478C-189.873,499.361 -188.006,498.302 -186.861,496.618L-180.367,485.802C-180.353,485.771 -180.339,485.74 -180.326,485.709L-179.401,484.17L-175.094,477L-169.821,468.222C-168.884,466.437 -168.884,464.299 -169.821,462.514L-186.861,434.131C-188.006,432.446 -189.873,431.387 -191.907,431.27L-192.193,431.27L-192.193,431.253L-204.588,431.27L-205.539,431.253C-205.575,431.259 -205.61,431.264 -205.646,431.27L-206.761,431.27C-206.782,431.27 -206.801,431.273 -206.821,431.273L-210.626,431.279C-210.685,431.276 -210.742,431.27 -210.803,431.27L-211.891,431.27C-211.927,431.264 -211.963,431.258 -211.999,431.253L-211.998,431.251ZM-208.768,449.631L-200.763,449.77C-199.601,450.116 -198.567,450.798 -197.792,451.731L-197.762,451.782C-197.73,451.832 -197.689,451.876 -197.65,451.919C-197.601,451.984 -197.553,452.05 -197.507,452.117L-192.829,459.903L-191.317,462.536L-190.956,463.371C-190.4,464.971 -190.531,466.732 -191.317,468.232L-197.764,478.965C-198.536,479.906 -199.571,480.596 -200.736,480.947L-209.036,481.091L-217.335,480.947C-217.986,480.749 -218.599,480.445 -219.149,480.047L-226.247,468.232C-227.042,466.71 -227.163,464.921 -226.579,463.306L-226.247,462.536L-224.735,459.903L-220.189,452.336C-219.395,451.1 -218.182,450.189 -216.774,449.77L-208.768,449.631ZM-152.492,469.469L-152.495,469.47C-157.499,477.862 -162.504,486.255 -167.508,494.647L-168.958,497.086C-169.615,498.501 -168.948,499.627 -167.229,499.62L-152.374,499.557C-150.34,499.431 -148.48,498.366 -147.341,496.675C-146.006,494.415 -144.494,491.901 -143.251,489.816C-142.761,488.734 -142.6,487.483 -142.8,486.311C-142.916,485.643 -143.127,484.986 -143.468,484.396C-146.476,479.42 -149.484,474.445 -152.492,469.469Z" style="fill:white;fill-rule:nonzero;"/>
        </g>
    </g>
</svg>
